<mxfile host="app.diagrams.net" modified="2023-10-13T07:41:07.295Z" agent="Mozilla/5.0 (Windows NT 10.0; Win64; x64) AppleWebKit/537.36 (KHTML, like Gecko) Chrome/118.0.0.0 Safari/537.36" etag="MN0v5jS7MbzSBIL3Ch6g" version="22.0.4" type="github">
  <diagram id="wFE0QG_FPsp0jaGvCLVb" name="Page-1">
    <mxGraphModel dx="1500" dy="830" grid="0" gridSize="10" guides="1" tooltips="1" connect="1" arrows="1" fold="1" page="0" pageScale="1" pageWidth="850" pageHeight="1100" math="0" shadow="0">
      <root>
        <mxCell id="0" />
        <mxCell id="1" parent="0" />
        <mxCell id="ysuf5m6kQvaePHr1nWa5-3" value="" style="edgeStyle=orthogonalEdgeStyle;rounded=0;orthogonalLoop=1;jettySize=auto;html=1;entryX=0;entryY=0.5;entryDx=0;entryDy=0;" edge="1" parent="1" source="ysuf5m6kQvaePHr1nWa5-1" target="ysuf5m6kQvaePHr1nWa5-2">
          <mxGeometry relative="1" as="geometry" />
        </mxCell>
        <mxCell id="ysuf5m6kQvaePHr1nWa5-6" style="edgeStyle=orthogonalEdgeStyle;rounded=0;orthogonalLoop=1;jettySize=auto;html=1;entryX=0;entryY=0.5;entryDx=0;entryDy=0;" edge="1" parent="1" source="ysuf5m6kQvaePHr1nWa5-1" target="ysuf5m6kQvaePHr1nWa5-4">
          <mxGeometry relative="1" as="geometry" />
        </mxCell>
        <mxCell id="ysuf5m6kQvaePHr1nWa5-7" style="edgeStyle=orthogonalEdgeStyle;rounded=0;orthogonalLoop=1;jettySize=auto;html=1;entryX=0;entryY=0.5;entryDx=0;entryDy=0;" edge="1" parent="1" source="ysuf5m6kQvaePHr1nWa5-1" target="ysuf5m6kQvaePHr1nWa5-5">
          <mxGeometry relative="1" as="geometry" />
        </mxCell>
        <mxCell id="ysuf5m6kQvaePHr1nWa5-1" value="端口扫描" style="rounded=1;whiteSpace=wrap;html=1;" vertex="1" parent="1">
          <mxGeometry x="40" y="210" width="120" height="60" as="geometry" />
        </mxCell>
        <mxCell id="ysuf5m6kQvaePHr1nWa5-2" value="21" style="whiteSpace=wrap;html=1;rounded=1;" vertex="1" parent="1">
          <mxGeometry x="245" y="106" width="120" height="60" as="geometry" />
        </mxCell>
        <mxCell id="ysuf5m6kQvaePHr1nWa5-4" value="22" style="whiteSpace=wrap;html=1;rounded=1;" vertex="1" parent="1">
          <mxGeometry x="245" y="210" width="120" height="60" as="geometry" />
        </mxCell>
        <mxCell id="ysuf5m6kQvaePHr1nWa5-9" value="" style="edgeStyle=orthogonalEdgeStyle;rounded=0;orthogonalLoop=1;jettySize=auto;html=1;" edge="1" parent="1" source="ysuf5m6kQvaePHr1nWa5-5" target="ysuf5m6kQvaePHr1nWa5-8">
          <mxGeometry relative="1" as="geometry" />
        </mxCell>
        <mxCell id="ysuf5m6kQvaePHr1nWa5-5" value="80" style="whiteSpace=wrap;html=1;rounded=1;" vertex="1" parent="1">
          <mxGeometry x="245" y="352" width="120" height="60" as="geometry" />
        </mxCell>
        <mxCell id="ysuf5m6kQvaePHr1nWa5-11" value="" style="edgeStyle=orthogonalEdgeStyle;rounded=0;orthogonalLoop=1;jettySize=auto;html=1;" edge="1" parent="1" source="ysuf5m6kQvaePHr1nWa5-8" target="ysuf5m6kQvaePHr1nWa5-10">
          <mxGeometry relative="1" as="geometry" />
        </mxCell>
        <mxCell id="ysuf5m6kQvaePHr1nWa5-8" value="从网页中发现需要修改 User-Agent 经过操作获取到一个用户名称以及对应的用户是一个弱密码" style="whiteSpace=wrap;html=1;rounded=1;" vertex="1" parent="1">
          <mxGeometry x="445" y="352" width="203" height="61" as="geometry" />
        </mxCell>
        <mxCell id="ysuf5m6kQvaePHr1nWa5-13" value="" style="edgeStyle=orthogonalEdgeStyle;rounded=0;orthogonalLoop=1;jettySize=auto;html=1;" edge="1" parent="1" source="ysuf5m6kQvaePHr1nWa5-10" target="ysuf5m6kQvaePHr1nWa5-12">
          <mxGeometry relative="1" as="geometry" />
        </mxCell>
        <mxCell id="ysuf5m6kQvaePHr1nWa5-10" value="进行用户的暴力破解获取到一个 FTP 账号" style="whiteSpace=wrap;html=1;rounded=1;" vertex="1" parent="1">
          <mxGeometry x="486.5" y="106" width="120" height="60" as="geometry" />
        </mxCell>
        <mxCell id="ysuf5m6kQvaePHr1nWa5-15" value="" style="edgeStyle=orthogonalEdgeStyle;rounded=0;orthogonalLoop=1;jettySize=auto;html=1;" edge="1" parent="1" source="ysuf5m6kQvaePHr1nWa5-12" target="ysuf5m6kQvaePHr1nWa5-14">
          <mxGeometry relative="1" as="geometry" />
        </mxCell>
        <mxCell id="ysuf5m6kQvaePHr1nWa5-12" value="从中获取到几张照片并发现文件隐写最终获取到一个 SSH 账号" style="whiteSpace=wrap;html=1;rounded=1;" vertex="1" parent="1">
          <mxGeometry x="686.5" y="106" width="120" height="60" as="geometry" />
        </mxCell>
        <mxCell id="ysuf5m6kQvaePHr1nWa5-17" value="" style="edgeStyle=orthogonalEdgeStyle;rounded=0;orthogonalLoop=1;jettySize=auto;html=1;entryX=0;entryY=0.5;entryDx=0;entryDy=0;" edge="1" parent="1" source="ysuf5m6kQvaePHr1nWa5-14" target="ysuf5m6kQvaePHr1nWa5-16">
          <mxGeometry relative="1" as="geometry" />
        </mxCell>
        <mxCell id="ysuf5m6kQvaePHr1nWa5-19" style="edgeStyle=orthogonalEdgeStyle;rounded=0;orthogonalLoop=1;jettySize=auto;html=1;entryX=0;entryY=0.5;entryDx=0;entryDy=0;" edge="1" parent="1" source="ysuf5m6kQvaePHr1nWa5-14" target="ysuf5m6kQvaePHr1nWa5-18">
          <mxGeometry relative="1" as="geometry" />
        </mxCell>
        <mxCell id="ysuf5m6kQvaePHr1nWa5-14" value="登陆对应的用户" style="whiteSpace=wrap;html=1;rounded=1;" vertex="1" parent="1">
          <mxGeometry x="869" y="210" width="120" height="60" as="geometry" />
        </mxCell>
        <mxCell id="ysuf5m6kQvaePHr1nWa5-16" value="用户输入 lxd 组可以完成提权" style="whiteSpace=wrap;html=1;rounded=1;" vertex="1" parent="1">
          <mxGeometry x="1068" y="148" width="173" height="60" as="geometry" />
        </mxCell>
        <mxCell id="ysuf5m6kQvaePHr1nWa5-18" value="SUDO CVE 漏洞" style="whiteSpace=wrap;html=1;rounded=1;" vertex="1" parent="1">
          <mxGeometry x="1068" y="270" width="173" height="60" as="geometry" />
        </mxCell>
      </root>
    </mxGraphModel>
  </diagram>
</mxfile>
